%TF.GenerationSoftware,KiCad,Pcbnew,(6.0.8-1)-1*%
%TF.CreationDate,2022-11-01T14:09:59-07:00*%
%TF.ProjectId,11:1_cuts,31313a31-5f63-4757-9473-2e6b69636164,rev?*%
%TF.SameCoordinates,Original*%
%TF.FileFunction,Profile,NP*%
%FSLAX46Y46*%
G04 Gerber Fmt 4.6, Leading zero omitted, Abs format (unit mm)*
G04 Created by KiCad (PCBNEW (6.0.8-1)-1) date 2022-11-01 14:09:59*
%MOMM*%
%LPD*%
G01*
G04 APERTURE LIST*
%TA.AperFunction,Profile*%
%ADD10C,0.100000*%
%TD*%
G04 APERTURE END LIST*
D10*
X55722500Y-58480000D02*
X55722500Y-58980000D01*
X57310000Y-58480000D02*
G75*
G03*
X55722500Y-58480000I-793750J0D01*
G01*
X57310000Y-60480000D02*
X57310000Y-58480000D01*
X46897500Y-58980000D02*
X46897500Y-58480000D01*
X65560000Y-30480000D02*
X65560000Y-39480000D01*
X65560000Y-39480000D02*
X67060000Y-39480000D01*
X65560000Y-60480000D02*
X57310000Y-60480000D01*
X56560000Y-28980000D02*
X56560000Y-30480000D01*
X56560000Y-30480000D02*
X65560000Y-30480000D01*
X67060000Y-51480000D02*
X65560000Y-51480000D01*
X44560000Y-28980000D02*
X56560000Y-28980000D01*
X35560000Y-38730000D02*
X35560000Y-30480000D01*
X37524614Y-38730760D02*
X37060000Y-38730333D01*
X44560000Y-30480000D02*
X44560000Y-28980000D01*
X35560000Y-30480000D02*
X44560000Y-30480000D01*
X65560000Y-51480000D02*
X65560000Y-60480000D01*
X37524614Y-40317472D02*
G75*
G03*
X37524614Y-38730760I34740J793356D01*
G01*
X37060000Y-40317564D02*
X37524614Y-40317471D01*
X55722500Y-58980000D02*
X46897500Y-58980000D01*
X67060000Y-39480000D02*
X67060000Y-51480000D01*
X35560000Y-60480000D02*
X35560000Y-50729635D01*
X37060000Y-49142436D02*
X37060000Y-40317564D01*
X37060000Y-38730333D02*
X35560000Y-38730000D01*
X37524614Y-49142529D02*
X37060000Y-49142436D01*
X37524614Y-50729241D02*
G75*
G03*
X37524614Y-49142529I34732J793356D01*
G01*
X45310000Y-60480000D02*
X35560000Y-60480000D01*
X45310000Y-58480000D02*
X45310000Y-60480000D01*
X35560000Y-50729635D02*
X37524614Y-50729240D01*
X46897500Y-58480000D02*
G75*
G03*
X45310000Y-58480000I-793750J0D01*
G01*
X93312500Y-59470000D02*
X93312500Y-59970000D01*
X94900000Y-59470000D02*
G75*
G03*
X93312500Y-59470000I-793750J0D01*
G01*
X94900000Y-61470000D02*
X94900000Y-59470000D01*
X103150000Y-61470000D02*
X94900000Y-61470000D01*
X103150000Y-52470000D02*
X103150000Y-61470000D01*
X104650000Y-52470000D02*
X103150000Y-52470000D01*
X104650000Y-40470000D02*
X104650000Y-52470000D01*
X103150000Y-40470000D02*
X104650000Y-40470000D01*
X103150000Y-31470000D02*
X103150000Y-40470000D01*
X94150000Y-31470000D02*
X103150000Y-31470000D01*
X94150000Y-29970000D02*
X94150000Y-31470000D01*
X82150000Y-29970000D02*
X94150000Y-29970000D01*
X82150000Y-31470000D02*
X82150000Y-29970000D01*
X73150000Y-31470000D02*
X82150000Y-31470000D01*
X73150000Y-39720000D02*
X73150000Y-31470000D01*
X74650000Y-39720333D02*
X73150000Y-39720000D01*
X75114614Y-39720760D02*
X74650000Y-39720333D01*
X75114614Y-41307480D02*
G75*
G03*
X75114614Y-39720760I34736J793360D01*
G01*
X74650000Y-41307564D02*
X75114614Y-41307471D01*
X74650000Y-50132436D02*
X74650000Y-41307564D01*
X75114614Y-50132529D02*
X74650000Y-50132436D01*
X75114614Y-51719231D02*
G75*
G03*
X75114614Y-50132529I34736J793351D01*
G01*
X73150000Y-51719635D02*
X75114614Y-51719240D01*
X73150000Y-61470000D02*
X73150000Y-51719635D01*
X82900000Y-61470000D02*
X73150000Y-61470000D01*
X82900000Y-59470000D02*
X82900000Y-61470000D01*
X84487500Y-59470000D02*
G75*
G03*
X82900000Y-59470000I-793750J0D01*
G01*
X84487500Y-59970000D02*
X84487500Y-59470000D01*
X93312500Y-59970000D02*
X84487500Y-59970000D01*
M02*
